<?xml version="1.0" encoding="utf-8"?>
<!-- Generator: Adobe Illustrator 19.0.0, SVG Export Plug-In . SVG Version: 6.00 Build 0)  -->
<svg version="1.1" id="Layer_1" xmlns="http://www.w3.org/2000/svg" xmlns:xlink="http://www.w3.org/1999/xlink" x="0px" y="0px"
	 viewBox="-2157 2159 292 292" style="enable-background:new -2157 2159 292 292;" xml:space="preserve">
<style type="text/css">
	.st0{fill:#9DA5B0;}
</style>
<g id="XMLID_44_">
	<path id="XMLID_4_" class="st0" d="M-1974.2,2193.2c-18.8-21.1-46.2-34.4-76.6-34.4c-56.7,0-102.7,46-102.7,102.7
		c0,20.1,5.8,38.8,15.7,54.6C-2107.8,2251.6-2046.9,2204.3-1974.2,2193.2z"/>
	<path id="XMLID_2_" class="st0" d="M-1949.8,2396.4c27.7-5.7,52.9-22.7,68.1-49c28.5-49.1,11.8-111.9-37.3-140.4
		c-17.3-10.1-36.4-14.5-55.1-13.8C-1933.3,2251.6-1922.9,2327.9-1949.8,2396.4z"/>
	<path id="XMLID_5_" class="st0" d="M-2137.6,2316.1c-8.8,26.8-6.7,57.1,8.6,83.5c28.4,49.1,91.2,66,140.3,37.6
		c17.4-10,30.7-24.4,39.4-40.9C-2020.2,2402.6-2091.6,2373.5-2137.6,2316.1z"/>
</g>
</svg>
