<?xml version="1.0" encoding="utf-8"?>
<!-- Generator: Adobe Illustrator 22.0.1, SVG Export Plug-In . SVG Version: 6.00 Build 0)  -->
<svg version="1.1" id="Layer_1" xmlns="http://www.w3.org/2000/svg" xmlns:xlink="http://www.w3.org/1999/xlink" x="0px" y="0px"
	 viewBox="0 0 1381.1 292" style="enable-background:new 0 0 1381.1 292;" xml:space="preserve">
<style type="text/css">
	.st0{fill:#0FA8E1;}
	.st1{fill:#0459A2;}
	.st2{fill:#333333;}
</style>
<path class="st0" d="M182.8,34.2C164,13.1,136.6-0.2,106.2-0.2C49.5-0.2,3.5,45.8,3.5,102.5c0,20.1,5.8,38.8,15.7,54.6
	C49.2,92.6,110.1,45.3,182.8,34.2L182.8,34.2z"/>
<g>
	<path class="st1" d="M207.2,237.4c27.7-5.7,52.9-22.7,68.1-49C303.8,139.3,287.1,76.5,238,48c-17.3-10.1-36.4-14.5-55.1-13.8
		C223.7,92.6,234.1,168.9,207.2,237.4z"/>
	<path class="st1" d="M19.4,157.1c-8.8,26.8-6.7,57.1,8.6,83.5c28.4,49.1,91.2,66,140.3,37.6c17.4-10,30.7-24.4,39.4-40.9
		C136.8,243.6,65.4,214.5,19.4,157.1L19.4,157.1z"/>
</g>
<g id="XMLID_2_">
	<path id="XMLID_45_" class="st2" d="M431.6,187.5c-5.5,0-8.2-2.7-8.2-8.2V166l-26.7-0.1l-0.1,13.4c0,5.4-2.7,8.2-8.1,8.2
		s-8.1-2.7-8.1-8.1v-37.1c0-16.5,8.1-24.7,24.2-24.7l26.8,0.1c5.4,0,8.1,2.6,8.1,8v53.7C439.5,184.8,436.8,187.5,431.6,187.5z
		 M423.3,149.7v-16h-18.5c-5.5,0-8.2,2.8-8.2,8.3v7.7H423.3z"/>
	<path id="XMLID_48_" class="st2" d="M465.8,179.2v-53.6c0-5.3,2.7-8,8.1-8l27-0.1c16.1,0,24.2,8.2,24.2,24.7v37.1
		c0,5.4-2.7,8.1-8.1,8.1c-5.4,0-8.1-2.7-8.1-8.2V142c0-5.5-2.7-8.3-8.2-8.3h-18.8v45.5c0,5.4-2.7,8.2-8.2,8.2
		C468.5,187.4,465.8,184.7,465.8,179.2z"/>
	<path id="XMLID_50_" class="st2" d="M575.4,117.5h10.7c16.2,0,24.3,8.1,24.3,24.2v20.9c0,16.5-8.1,24.7-24.2,24.7h-11
		c-16,0-24-8.1-24-24.2v-21.4C551.2,125.7,559.3,117.5,575.4,117.5z M575.3,133.8c-5.3,0-8,2.7-8,8V163c0,5.5,2.6,8.3,8,8.3h10.8
		c5.4,0,8.2-2.8,8.2-8.3v-21.4c0-5.2-2.7-7.8-8.2-7.8L575.3,133.8L575.3,133.8z"/>
	<path id="XMLID_53_" class="st2" d="M674.3,179.6c0,5.3-2.7,8-8.1,8h-5.5c-16.1,0-24.2-8.2-24.2-24.7v-53.2c0-5.4,2.7-8.1,8.1-8.1
		c5.4,0,8.1,2.6,8.1,8.1v8l13.1,0.1c5.6,0,8.4,2.6,8.4,8c0,5.2-2.7,7.9-8.2,8l-13.4-0.1v29.6c0,5.5,2.7,8.2,8.2,8.2l5.5,0.1
		C671.7,171.5,674.3,174.2,674.3,179.6z"/>
	<path id="XMLID_55_" class="st2" d="M700.3,179.4V104c0-5.3,2.7-8,8.1-8c5.4,0,8.1,2.7,8.1,8.2v13.4h18.9
		c16.1,0,24.2,8.2,24.2,24.7v37.1c0,5.4-2.7,8.1-8.1,8.1s-8.1-2.7-8.1-8.2V142c0-5.5-2.7-8.3-8.2-8.3h-18.8v45.6
		c0,5.4-2.7,8.2-8.2,8.2C702.9,187.5,700.3,184.8,700.3,179.4z"/>
	<path id="XMLID_57_" class="st2" d="M844.8,179.6c0,5.3-2.7,8-8.1,8h-27c-16.1,0-24.2-8.2-24.2-24.7v-37.1c0-5.4,2.7-8.1,8.1-8.1
		h42.7c5.6,0,8.4,2.6,8.4,8c0,5.2-2.8,7.9-8.2,8l-34.8-0.1v10.8l24.1-0.1c5.4,0.1,8.2,2.9,8.2,8.3c0,5.2-2.6,7.8-8,7.8l-24.3,0.1
		v2.7c0,5.5,2.7,8.2,8.2,8.2l27,0.1C842.2,171.5,844.8,174.2,844.8,179.6z"/>
	<path id="XMLID_59_" class="st2" d="M916.8,147.2c-5.5,0-8.2-2.7-8.2-8.2v-5.3h-13.3c-5.5,0-8.2,2.8-8.2,8.3v37.3
		c0,5.4-2.7,8.2-8.1,8.2c-5.4,0-8.1-2.7-8.1-8.1v-37.1c0-16.5,8.1-24.7,24.2-24.7l21.5,0.1c5.4,0,8.1,2.6,8.1,8v13.4
		C924.7,144.5,922.1,147.2,916.8,147.2z"/>
	<path id="XMLID_61_" class="st2" d="M967.2,187.4c-5.4,0-8.2-2.7-8.2-8.2v-45.5c-5.4,0-8.1-2.6-8.1-7.8c0-5.4,2.7-8.2,8.1-8.3
		l8.1-0.1c5.4,0.1,8.1,2.8,8.1,8.1v53.6C975.2,184.7,972.6,187.4,967.2,187.4z M962.7,97.1c-1.3,0.7-2.3,1.7-3,2.9
		c-0.7,1.3-1.1,2.6-1.1,4c0,1.4,0.4,2.7,1.1,4c0.7,1.3,1.7,2.2,2.9,2.9c1.2,0.7,2.6,1,4,1c1.4,0,2.7-0.3,4-1
		c1.3-0.7,2.2-1.7,2.9-2.9s1-2.6,1-4c0-1.4-0.4-2.7-1.1-4c-0.7-1.3-1.7-2.3-3-2.9c-1.3-0.7-2.6-1-3.9-1
		C965.4,96.1,964,96.5,962.7,97.1z"/>
	<path id="XMLID_64_" class="st2" d="M1052.5,187.5c-5.5,0-8.2-2.7-8.2-8.2V166l-26.7-0.1l-0.1,13.4c0,5.4-2.7,8.2-8.1,8.2
		c-5.4,0-8.1-2.7-8.1-8.1v-37.1c0-16.5,8.1-24.7,24.2-24.7l26.8,0.1c5.4,0,8.1,2.6,8.1,8v53.7
		C1060.4,184.8,1057.8,187.5,1052.5,187.5z M1044.3,149.7v-16h-18.5c-5.5,0-8.2,2.8-8.2,8.3v7.7H1044.3z"/>
	<path id="XMLID_67_" class="st2" d="M1103,166c1.8,0,3.5,0.5,5.2,1.4c1.7,0.9,3,2.2,4,4c0.9,1.7,1.4,3.5,1.4,5.4
		c0,1.8-0.5,3.5-1.4,5.2c-0.9,1.7-2.2,3-4,4c-1.7,0.9-3.4,1.4-5.2,1.4c-1.9,0-3.6-0.5-5.3-1.4c-1.7-0.9-3-2.2-3.9-4
		c-0.9-1.7-1.4-3.4-1.4-5.2c0-1.9,0.5-3.6,1.4-5.4c0.9-1.7,2.3-3,4-4C1099.4,166.5,1101.2,166,1103,166z"/>
	<path id="XMLID_69_" class="st2" d="M1145.1,179.2v-53.6c0-5.3,2.7-8,8.1-8l27-0.1c16.1,0,24.2,8.2,24.2,24.7v37.1
		c0,5.4-2.7,8.1-8.1,8.1c-5.4,0-8.1-2.7-8.1-8.2V142c0-5.5-2.7-8.3-8.2-8.3h-18.8v45.5c0,5.4-2.7,8.2-8.2,8.2
		C1147.8,187.4,1145.1,184.7,1145.1,179.2z"/>
	<path id="XMLID_71_" class="st2" d="M1289.7,179.6c0,5.3-2.7,8-8.1,8h-27c-16.1,0-24.2-8.2-24.2-24.7v-37.1c0-5.4,2.7-8.1,8.1-8.1
		h42.7c5.6,0,8.4,2.6,8.4,8c0,5.2-2.8,7.9-8.2,8l-34.8-0.1v10.8l24.1-0.1c5.4,0.1,8.2,2.9,8.2,8.3c0,5.2-2.6,7.8-8,7.8l-24.3,0.1
		v2.7c0,5.5,2.7,8.2,8.2,8.2l27,0.1C1287,171.5,1289.7,174.2,1289.7,179.6z"/>
	<path id="XMLID_73_" class="st2" d="M1353.6,179.6c0,5.3-2.7,8-8.1,8h-5.6c-16.1,0-24.2-8.2-24.2-24.7v-53.2c0-5.4,2.7-8.1,8.1-8.1
		c5.4,0,8.1,2.6,8.1,8.1v8l13.1,0.1c5.6,0,8.4,2.6,8.4,8c0,5.2-2.7,7.9-8.2,8l-13.4-0.1v29.6c0,5.5,2.7,8.2,8.2,8.2l5.5,0.1
		C1350.9,171.5,1353.6,174.2,1353.6,179.6z"/>
</g>
</svg>
