<?xml version="1.0" encoding="utf-8"?>
<!-- Generator: Adobe Illustrator 22.0.1, SVG Export Plug-In . SVG Version: 6.00 Build 0)  -->
<svg version="1.1" id="Layer_1" xmlns="http://www.w3.org/2000/svg" xmlns:xlink="http://www.w3.org/1999/xlink" x="0px" y="0px"
	 viewBox="0 0 3202.8 301.1" style="enable-background:new 0 0 3202.8 301.1;" xml:space="preserve">
<style type="text/css">
	.st0{fill:#FFFFFF;}
</style>
<g id="XMLID_2_">
	<path id="XMLID_45_" class="st0" d="M168.2,301.1c-18,0-27.1-9-27.1-26.9v-44l-87.9-0.2l-0.2,44.2c0,17.9-8.8,26.9-26.5,26.9
		C8.8,301.1,0,292.3,0,274.6v-122c0-54.2,26.5-81.3,79.6-81.3l88.1,0.2c17.7,0,26.5,8.7,26.5,26.2v176.7
		C194.2,292.2,185.5,301.1,168.2,301.1z M141.1,176.8v-52.5h-61c-18,0-27.1,9.1-27.1,27.2v25.3H141.1z"/>
	<path id="XMLID_48_" class="st0" d="M280.9,273.9V97.6c0-17.4,8.8-26.2,26.5-26.2l88.8-0.2c53,0,79.6,27.1,79.6,81.3v122
		c0,17.7-8.8,26.5-26.5,26.5c-17.7,0-26.5-9-26.5-26.9V151.5c0-18.2-9-27.2-26.9-27.2H334v149.6c0,17.9-9,26.9-26.9,26.9
		C289.7,300.8,280.9,291.8,280.9,273.9z"/>
	<path id="XMLID_50_" class="st0" d="M641.6,70.9h35.2c53.3,0,79.9,26.6,79.9,79.8v68.8c0,54.2-26.5,81.3-79.6,81.3h-36.2
		c-52.7,0-79-26.5-79-79.6v-70.4C561.9,97.6,588.5,70.9,641.6,70.9z M641.1,124.3c-17.4,0-26.2,8.8-26.2,26.3v69.8
		c0,18.2,8.7,27.2,26.2,27.2h35.7c17.9,0,26.9-9.1,26.9-27.2V150c0-17.1-9-25.6-26.9-25.6H641.1z"/>
	<path id="XMLID_53_" class="st0" d="M967.1,275c0,17.4-8.8,26.2-26.5,26.2h-18.2c-53.1,0-79.6-27.1-79.6-81.3V44.7
		c0-17.7,8.8-26.5,26.5-26.5c17.8-0.1,26.6,8.7,26.5,26.5v26.3l43.1,0.2c18.5-0.1,27.8,8.7,27.8,26.3c0,17.2-9,26-26.9,26.3l-44-0.2
		V221c0,18,9,27.1,27.1,27.1l18,0.2C958.4,248.3,967.1,257.2,967.1,275z"/>
	<path id="XMLID_55_" class="st0" d="M1052.5,274.3V26.3c0-17.6,8.8-26.3,26.5-26.3c17.7,0,26.5,9,26.5,27.1v44.2h62.2
		c53.1,0,79.6,27.1,79.6,81.3v122c0,17.7-8.8,26.5-26.5,26.5c-17.7,0-26.5-9-26.5-26.9V151.5c0-18.2-9-27.2-26.9-27.2h-61.9v150
		c0,17.9-9,26.9-26.9,26.9C1061.2,301.1,1052.5,292.2,1052.5,274.3z"/>
	<path id="XMLID_57_" class="st0" d="M1528.3,275c0,17.4-8.8,26.2-26.5,26.2H1413c-53.1,0-79.6-27.1-79.6-81.3v-122
		c0-17.7,8.8-26.5,26.5-26.5h140.4c18.5-0.1,27.8,8.7,27.8,26.3c-0.1,17.2-9.1,26-27.1,26.3l-114.6-0.2v35.4l79.4-0.4
		c17.9,0.2,26.9,9.4,26.9,27.4c0.1,17.2-8.7,25.8-26.3,25.8l-79.9,0.2v8.8c0,18,9,27.1,27.1,27.1l88.8,0.2
		C1519.6,248.3,1528.3,257.2,1528.3,275z"/>
	<path id="XMLID_59_" class="st0" d="M1765.2,168.5c-18,0-27.1-9-27.1-26.9v-17.3h-43.7c-18,0-27.1,9.1-27.1,27.2v122.7
		c0,17.9-8.8,26.9-26.5,26.9c-17.7,0-26.5-8.8-26.5-26.5v-122c0-54.2,26.5-81.3,79.6-81.3l70.7,0.2c17.7,0,26.5,8.7,26.5,26.2v44
		C1791.2,159.6,1782.5,168.5,1765.2,168.5z"/>
	<path id="XMLID_61_" class="st0" d="M1931.2,300.8c-17.9,0-26.9-9-26.9-26.9V124.3c-17.9,0-26.8-8.5-26.5-25.6
		c0-17.9,8.8-27.1,26.5-27.4l26.5-0.4c17.7,0.4,26.5,9.3,26.5,26.7v176.3C1957.4,291.8,1948.7,300.8,1931.2,300.8z M1916.4,3.7
		c-4.2,2.2-7.5,5.5-9.8,9.7c-2.4,4.2-3.5,8.7-3.5,13.3c0,4.5,1.2,8.8,3.5,13c2.4,4.2,5.6,7.4,9.7,9.7c4.1,2.3,8.5,3.4,13.1,3.4
		c4.5,0,8.8-1.1,13-3.4c4.2-2.3,7.4-5.5,9.7-9.7c2.3-4.2,3.4-8.5,3.4-13c0-4.6-1.2-9-3.5-13.3c-2.4-4.2-5.6-7.5-9.8-9.7
		c-4.2-2.2-8.5-3.4-12.8-3.4C1925,0.4,1920.6,1.5,1916.4,3.7z"/>
	<path id="XMLID_64_" class="st0" d="M2211.8,301.1c-18,0-27.1-9-27.1-26.9v-44l-87.9-0.2l-0.2,44.2c0,17.9-8.8,26.9-26.5,26.9
		c-17.7,0-26.5-8.8-26.5-26.5v-122c0-54.2,26.5-81.3,79.6-81.3l88.1,0.2c17.7,0,26.5,8.7,26.5,26.2v176.7
		C2237.8,292.2,2229.1,301.1,2211.8,301.1z M2184.7,176.8v-52.5h-61c-18,0-27.1,9.1-27.1,27.2v25.3H2184.7z"/>
	<path id="XMLID_67_" class="st0" d="M2378,230.4c5.8,0,11.5,1.5,17.1,4.5c5.6,3,10,7.3,13.1,13c3.1,5.7,4.7,11.6,4.7,17.7
		c0,5.9-1.5,11.6-4.6,17.2c-3.1,5.6-7.4,9.9-13,13c-5.6,3.1-11.3,4.6-17.2,4.6c-6.1,0-12-1.5-17.5-4.6c-5.5-3.1-9.9-7.4-13-13
		c-3.1-5.6-4.7-11.3-4.7-17.2c0-6.1,1.6-12,4.7-17.7c3.1-5.7,7.5-10,13.1-13C2366.2,231.9,2372,230.4,2378,230.4z"/>
	<path id="XMLID_69_" class="st0" d="M2516.6,273.9V97.6c0-17.4,8.8-26.2,26.5-26.2l88.8-0.2c53.1,0,79.6,27.1,79.6,81.3v122
		c0,17.7-8.8,26.5-26.5,26.5s-26.5-9-26.5-26.9V151.5c0-18.2-9-27.2-26.9-27.2h-61.9v149.6c0,17.9-9,26.9-26.9,26.9
		C2525.3,300.8,2516.6,291.8,2516.6,273.9z"/>
	<path id="XMLID_71_" class="st0" d="M2992.4,275c0,17.4-8.8,26.2-26.5,26.2h-88.8c-53.1,0-79.6-27.1-79.6-81.3v-122
		c0-17.7,8.8-26.5,26.5-26.5h140.4c18.5-0.1,27.8,8.7,27.8,26.3c-0.1,17.2-9.1,26-27.1,26.3l-114.6-0.2v35.4l79.4-0.4
		c17.9,0.2,26.9,9.4,26.9,27.4c0.1,17.2-8.7,25.8-26.3,25.8l-79.9,0.2v8.8c0,18,9,27.1,27.1,27.1l88.8,0.2
		C2983.7,248.3,2992.4,257.2,2992.4,275z"/>
	<path id="XMLID_73_" class="st0" d="M3202.8,275c0,17.4-8.8,26.2-26.5,26.2H3158c-53.1,0-79.6-27.1-79.6-81.3V44.7
		c0-17.7,8.8-26.5,26.5-26.5c17.8-0.1,26.6,8.7,26.5,26.5v26.3l43.1,0.2c18.5-0.1,27.8,8.7,27.8,26.3c0,17.2-9,26-26.9,26.3l-44-0.2
		V221c0,18,9,27.1,27.1,27.1l18,0.2C3194,248.3,3202.8,257.2,3202.8,275z"/>
</g>
</svg>
