<?xml version="1.0" encoding="utf-8"?>
<!-- Generator: Adobe Illustrator 19.0.0, SVG Export Plug-In . SVG Version: 6.00 Build 0)  -->
<svg version="1.1" id="Layer_1" xmlns="http://www.w3.org/2000/svg" xmlns:xlink="http://www.w3.org/1999/xlink" x="0px" y="0px"
	 viewBox="0 0 292 292" style="enable-background:new 0 0 292 292;" xml:space="preserve">
<style type="text/css">
	.st0{fill:#0FA8E1;}
	.st1{fill:#0459A2;}
</style>
<g id="XMLID_44_">
	<path id="XMLID_4_" class="st0" d="M182.8,34.2C164,13.1,136.6-0.2,106.2-0.2C49.5-0.2,3.5,45.8,3.5,102.5
		c0,20.1,5.8,38.8,15.7,54.6C49.2,92.6,110.1,45.3,182.8,34.2z"/>
	<path id="XMLID_2_" class="st1" d="M207.2,237.4c27.7-5.7,52.9-22.7,68.1-49C303.8,139.3,287.1,76.5,238,48
		c-17.3-10.1-36.4-14.5-55.1-13.8C223.7,92.6,234.1,168.9,207.2,237.4z"/>
	<path id="XMLID_5_" class="st1" d="M19.4,157.1c-8.8,26.8-6.7,57.1,8.6,83.5c28.4,49.1,91.2,66,140.3,37.6
		c17.4-10,30.7-24.4,39.4-40.9C136.8,243.6,65.4,214.5,19.4,157.1z"/>
</g>
</svg>
