<?xml version="1.0" encoding="utf-8"?>
<!-- Generator: Adobe Illustrator 19.0.0, SVG Export Plug-In . SVG Version: 6.00 Build 0)  -->
<svg version="1.1" id="Layer_1" xmlns="http://www.w3.org/2000/svg" xmlns:xlink="http://www.w3.org/1999/xlink" x="0px" y="0px"
	 viewBox="0 0 119.3 37.1" style="enable-background:new 0 0 119.3 37.1;" xml:space="preserve">
<style type="text/css">
	.st0{fill:#232831;}
</style>
<path id="XMLID_34_" class="st0" d="M17.7,33c2.7,0,4.7-0.5,6-1.5c1.3-1,2-2.4,2-4.3c0-1.2-0.2-2.2-0.7-3c-0.5-0.8-1.3-1.5-2.4-2.1
	c-1.1-0.6-2.8-1.4-5.1-2.2c-3.2-1.2-5.5-2.5-6.8-4.1c-1.4-1.6-2-3.6-2-6.2c0-2.7,1-4.8,3-6.4c2-1.6,4.6-2.4,7.9-2.4
	c2,0,3.8,0.2,5.6,0.6c-2.1-0.8-4.3-1.2-6.6-1.2c-10,0-18.2,8-18.4,18c0.2,5.1,2.9,9.5,6.9,12.1C7.5,30.7,8,30.9,8.2,31
	c1.1,0.5,2.9,1.1,4.5,1.4C14.4,32.8,16,33,17.7,33z M5.3,24.9c-1.4-1.8-2.3-4-2.3-6.2c0-3.2,1-6.1,2.6-8.5c0.1,3,1,5.6,2.8,7.6
	c1.7,2,4.4,3.6,8.1,5c2.6,0.9,3.9,1.6,4.6,2c0.9,0.5,1.2,0.9,1.3,1.1c0.1,0.2,0.3,0.5,0.3,1.4c0,1.1-0.4,1.5-0.8,1.9
	c-0.5,0.4-1.7,0.9-4.2,0.9c-1.4,0-2.9-0.2-4.3-0.5c-1.5-0.3-3-0.8-3.8-1.2C8.9,28,7.2,27.1,5.3,24.9z"/>
<path id="XMLID_31_" class="st0" d="M15.5,14.7c1,0.6,2.6,1.3,4.8,2.1c3.6,1.3,6.1,2.7,7.4,4.2c1.3,1.5,2,3.4,2,5.8
	c0,3.1-1.1,5.4-3.3,7.1c-2.2,1.7-5.2,2.6-8.9,2.6c-1.8,0-3.4-0.1-4.8-0.3c1.8,0.6,3.7,0.9,5.7,0.9c9.2,0,16.7-6.7,18.2-15.4
	c0.1-0.6,0.1-1.3,0.1-2c0-4.7-1.1-8.7-6-11.9c-1.9-1.1-2.9-1.5-3.2-1.6c-2.8-1.2-5.5-1.8-8.2-1.8c-2.1,0-3.8,0.5-4.9,1.4
	c-1.2,0.9-1.8,2.2-1.8,3.8c0,1.2,0.2,2.2,0.7,3C13.7,13.4,14.5,14.1,15.5,14.7z M16.3,8.2c0.6-0.5,1.7-0.7,3.1-0.7
	c2.2,0,4.6,0.5,7,1.5c0.3,0.1,2.4,0.7,4.8,3.1c1.7,1.8,2.7,4.2,2.7,6.6c0,2.2-0.5,4.3-1.3,6.2c-0.3-2.3-1.2-4.2-2.7-5.8
	c-1.7-1.9-4.5-3.5-8.6-5c-2.4-0.9-3.6-1.5-4.2-1.9c-0.8-0.5-1.1-0.9-1.2-1c-0.1-0.2-0.3-0.6-0.3-1.5C15.6,8.8,16,8.5,16.3,8.2z"/>
<g id="XMLID_16_">
	<path id="XMLID_53_" class="st0" d="M48.4,15.4c0,0.8,0.5,2.1,2.7,2.1c0.7,0,2.2-0.1,2.2-1.5c0-1.2-1.2-1.5-1.9-1.6
		c-0.4-0.1-0.8-0.2-1.2-0.2c-1.7-0.4-3.2-0.9-3.2-3c0-2.9,3.2-3,4-3c2.7,0,3.8,1.5,4,3h-1.9C53,9.7,51.6,9.7,51,9.7
		c-0.3,0-2,0-2,1.4c0,1.1,1.2,1.2,2.3,1.5c2.4,0.4,4,1,4,3.2c0,2.9-2.6,3.3-4.3,3.3c-3.5,0-4.4-2-4.4-3.6H48.4z"/>
	<path id="XMLID_55_" class="st0" d="M64,18.7h-2.4L58.8,8.4h2.1l2,8.1l1.8-8.1h2.1l1.8,8.1l2-8.1h2.1L70,18.7h-2.4l-1.8-8.1
		L64,18.7z"/>
	<path id="XMLID_57_" class="st0" d="M77.6,18.7h-2l3.9-10.3h1.9l3.9,10.3h-2l-0.7-2.2h-4.1L77.6,18.7z M82,15l-1.6-4.6L78.9,15H82z
		"/>
	<path id="XMLID_60_" class="st0" d="M89.4,8.4H94c1.3,0,3.7,0.2,3.7,2.9c0,1.5-0.9,2.3-1.7,2.5v0c1.5,0.5,1.5,1.7,1.5,2.7
		c0,1.4,0,1.7,0.4,2.2h-1.9c-0.3-0.5-0.3-0.8-0.3-2.1c0-0.9-0.1-1.9-2.2-1.9h-2.2v4.1h-1.9V8.4z M91.3,13.1h2.3c1,0,2.1-0.1,2.1-1.5
		c0-1.5-1.3-1.5-2.1-1.5h-2.4V13.1z"/>
	<path id="XMLID_63_" class="st0" d="M104.6,10.6L104.6,10.6V11v7.7h-1.9V8.4h2.8l2.8,7.8l2.8-7.8h2.8v10.3h-1.9V11l0-0.4h0l-3,8.1
		h-1.4L104.6,10.6z"/>
</g>
<g id="XMLID_7_">
	<path id="XMLID_30_" class="st0" d="M53.1,26.5c-0.1,0.9-0.6,2.2-2.6,2.2c-0.5,0-3,0-3-3.1c0-2.5,1.4-3.3,2.9-3.3
		c2.1,0,2.5,1.3,2.6,2.1h-1.1c-0.1-0.5-0.4-1.2-1.5-1.2c-1.3,0-1.7,1.1-1.7,2.3c0,1.4,0.8,2.2,1.8,2.2c1,0,1.4-0.7,1.5-1.3H53.1z"/>
	<path id="XMLID_38_" class="st0" d="M60.6,22.3c0.5,0,2.9,0.1,2.9,3.2c0,3.1-2.4,3.2-2.9,3.2s-2.9-0.1-2.9-3.2
		C57.6,22.4,60.1,22.3,60.6,22.3z M60.6,27.8c1.5,0,1.8-1.3,1.8-2.3c0-0.9-0.3-2.3-1.8-2.3c-1.5,0-1.8,1.3-1.8,2.3
		C58.8,26.4,59.1,27.8,60.6,27.8z"/>
	<path id="XMLID_41_" class="st0" d="M69.6,28.5h-1.1v-6h1.2l2.9,4.3v-4.3h1.1v6h-1.2l-2.9-4.3V28.5z"/>
	<path id="XMLID_43_" class="st0" d="M78.3,23.4v-0.9h4.9v0.9h-1.9v5.1h-1.1v-5.1H78.3z"/>
	<path id="XMLID_45_" class="st0" d="M87.9,22.5h2.7c0.7,0,2.2,0.1,2.2,1.7c0,0.9-0.5,1.3-1,1.5v0c0.9,0.3,0.9,1,0.9,1.6
		c0,0.8,0,1,0.2,1.3h-1.1c-0.2-0.3-0.2-0.5-0.2-1.3c0-0.5,0-1.1-1.3-1.1H89v2.4h-1.1V22.5z M89,25.2h1.4c0.6,0,1.3-0.1,1.3-0.9
		c0-0.9-0.8-0.9-1.2-0.9H89V25.2z"/>
	<path id="XMLID_48_" class="st0" d="M100.4,22.3c0.5,0,2.9,0.1,2.9,3.2c0,3.1-2.4,3.2-2.9,3.2c-0.5,0-2.9-0.1-2.9-3.2
		C97.5,22.4,99.9,22.3,100.4,22.3z M100.4,27.8c1.5,0,1.8-1.3,1.8-2.3c0-0.9-0.3-2.3-1.8-2.3c-1.5,0-1.8,1.3-1.8,2.3
		C98.6,26.4,98.9,27.8,100.4,27.8z"/>
	<path id="XMLID_51_" class="st0" d="M112.3,28.5h-4v-6h1.1v5.1h2.9V28.5z"/>
</g>
</svg>
