<?xml version="1.0" encoding="utf-8"?>
<!-- Generator: Adobe Illustrator 19.0.0, SVG Export Plug-In . SVG Version: 6.00 Build 0)  -->
<svg version="1.1" id="Layer_1" xmlns="http://www.w3.org/2000/svg" xmlns:xlink="http://www.w3.org/1999/xlink" x="0px" y="0px"
	 viewBox="0 0 4608 4608" style="enable-background:new 0 0 4608 4608;" xml:space="preserve">
<style type="text/css">
	.st0{display:none;}
	.st1{display:inline;fill:none;stroke:#000000;stroke-miterlimit:10;}
	.st2{fill:#0FA8E1;}
	.st3{opacity:0.2;}
	.st4{fill:#2B84C6;}
</style>
<g id="XMLID_1_" class="st0">
	<rect id="XMLID_2_" class="st1" width="4608" height="4608"/>
	<line id="XMLID_3_" class="st1" x1="0" y1="4536" x2="4608" y2="4536"/>
	<line id="XMLID_4_" class="st1" x1="0" y1="4464" x2="4608" y2="4464"/>
	<line id="XMLID_5_" class="st1" x1="0" y1="4392" x2="4608" y2="4392"/>
	<line id="XMLID_6_" class="st1" x1="0" y1="4320" x2="4608" y2="4320"/>
	<line id="XMLID_7_" class="st1" x1="0" y1="4248" x2="4608" y2="4248"/>
	<line id="XMLID_8_" class="st1" x1="0" y1="4176" x2="4608" y2="4176"/>
	<line id="XMLID_9_" class="st1" x1="0" y1="4104" x2="4608" y2="4104"/>
	<line id="XMLID_10_" class="st1" x1="0" y1="4032" x2="4608" y2="4032"/>
	<line id="XMLID_11_" class="st1" x1="0" y1="3960" x2="4608" y2="3960"/>
	<line id="XMLID_12_" class="st1" x1="0" y1="3888" x2="4608" y2="3888"/>
	<line id="XMLID_13_" class="st1" x1="0" y1="3816" x2="4608" y2="3816"/>
	<line id="XMLID_14_" class="st1" x1="0" y1="3744" x2="4608" y2="3744"/>
	<line id="XMLID_15_" class="st1" x1="0" y1="3672" x2="4608" y2="3672"/>
	<line id="XMLID_16_" class="st1" x1="0" y1="3600" x2="4608" y2="3600"/>
	<line id="XMLID_17_" class="st1" x1="0" y1="3528" x2="4608" y2="3528"/>
	<line id="XMLID_18_" class="st1" x1="0" y1="3456" x2="4608" y2="3456"/>
	<line id="XMLID_19_" class="st1" x1="0" y1="3384" x2="4608" y2="3384"/>
	<line id="XMLID_20_" class="st1" x1="0" y1="3312" x2="4608" y2="3312"/>
	<line id="XMLID_21_" class="st1" x1="0" y1="3240" x2="4608" y2="3240"/>
	<line id="XMLID_22_" class="st1" x1="0" y1="3168" x2="4608" y2="3168"/>
	<line id="XMLID_23_" class="st1" x1="0" y1="3096" x2="4608" y2="3096"/>
	<line id="XMLID_24_" class="st1" x1="0" y1="3024" x2="4608" y2="3024"/>
	<line id="XMLID_25_" class="st1" x1="0" y1="2952" x2="4608" y2="2952"/>
	<line id="XMLID_26_" class="st1" x1="0" y1="2880" x2="4608" y2="2880"/>
	<line id="XMLID_27_" class="st1" x1="0" y1="2808" x2="4608" y2="2808"/>
	<line id="XMLID_28_" class="st1" x1="0" y1="2736" x2="4608" y2="2736"/>
	<line id="XMLID_29_" class="st1" x1="0" y1="2664" x2="4608" y2="2664"/>
	<line id="XMLID_30_" class="st1" x1="0" y1="2592" x2="4608" y2="2592"/>
	<line id="XMLID_31_" class="st1" x1="0" y1="2520" x2="4608" y2="2520"/>
	<line id="XMLID_32_" class="st1" x1="0" y1="2448" x2="4608" y2="2448"/>
	<line id="XMLID_33_" class="st1" x1="0" y1="2376" x2="4608" y2="2376"/>
	<line id="XMLID_34_" class="st1" x1="0" y1="2304" x2="4608" y2="2304"/>
	<line id="XMLID_35_" class="st1" x1="0" y1="2232" x2="4608" y2="2232"/>
	<line id="XMLID_36_" class="st1" x1="0" y1="2160" x2="4608" y2="2160"/>
	<line id="XMLID_37_" class="st1" x1="0" y1="2088" x2="4608" y2="2088"/>
	<line id="XMLID_38_" class="st1" x1="0" y1="2016" x2="4608" y2="2016"/>
	<line id="XMLID_39_" class="st1" x1="0" y1="1944" x2="4608" y2="1944"/>
	<line id="XMLID_40_" class="st1" x1="0" y1="1872" x2="4608" y2="1872"/>
	<line id="XMLID_41_" class="st1" x1="0" y1="1800" x2="4608" y2="1800"/>
	<line id="XMLID_42_" class="st1" x1="0" y1="1728" x2="4608" y2="1728"/>
	<line id="XMLID_43_" class="st1" x1="0" y1="1656" x2="4608" y2="1656"/>
	<line id="XMLID_44_" class="st1" x1="0" y1="1584" x2="4608" y2="1584"/>
	<line id="XMLID_45_" class="st1" x1="0" y1="1512" x2="4608" y2="1512"/>
	<line id="XMLID_46_" class="st1" x1="0" y1="1440" x2="4608" y2="1440"/>
	<line id="XMLID_47_" class="st1" x1="0" y1="1368" x2="4608" y2="1368"/>
	<line id="XMLID_48_" class="st1" x1="0" y1="1296" x2="4608" y2="1296"/>
	<line id="XMLID_49_" class="st1" x1="0" y1="1224" x2="4608" y2="1224"/>
	<line id="XMLID_50_" class="st1" x1="0" y1="1152" x2="4608" y2="1152"/>
	<line id="XMLID_51_" class="st1" x1="0" y1="1080" x2="4608" y2="1080"/>
	<line id="XMLID_52_" class="st1" x1="0" y1="1008" x2="4608" y2="1008"/>
	<line id="XMLID_53_" class="st1" x1="0" y1="936" x2="4608" y2="936"/>
	<line id="XMLID_54_" class="st1" x1="0" y1="864" x2="4608" y2="864"/>
	<line id="XMLID_55_" class="st1" x1="0" y1="792" x2="4608" y2="792"/>
	<line id="XMLID_56_" class="st1" x1="0" y1="720" x2="4608" y2="720"/>
	<line id="XMLID_57_" class="st1" x1="0" y1="648" x2="4608" y2="648"/>
	<line id="XMLID_58_" class="st1" x1="0" y1="576" x2="4608" y2="576"/>
	<line id="XMLID_59_" class="st1" x1="0" y1="504" x2="4608" y2="504"/>
	<line id="XMLID_60_" class="st1" x1="0" y1="432" x2="4608" y2="432"/>
	<line id="XMLID_61_" class="st1" x1="0" y1="360" x2="4608" y2="360"/>
	<line id="XMLID_62_" class="st1" x1="0" y1="288" x2="4608" y2="288"/>
	<line id="XMLID_63_" class="st1" x1="0" y1="216" x2="4608" y2="216"/>
	<line id="XMLID_64_" class="st1" x1="0" y1="144" x2="4608" y2="144"/>
	<line id="XMLID_65_" class="st1" x1="0" y1="72" x2="4608" y2="72"/>
	<line id="XMLID_66_" class="st1" x1="4536" y1="0" x2="4536" y2="4608"/>
	<line id="XMLID_67_" class="st1" x1="4464" y1="0" x2="4464" y2="4608"/>
	<line id="XMLID_68_" class="st1" x1="4392" y1="0" x2="4392" y2="4608"/>
	<line id="XMLID_69_" class="st1" x1="4320" y1="0" x2="4320" y2="4608"/>
	<line id="XMLID_70_" class="st1" x1="4248" y1="0" x2="4248" y2="4608"/>
	<line id="XMLID_71_" class="st1" x1="4176" y1="0" x2="4176" y2="4608"/>
	<line id="XMLID_72_" class="st1" x1="4104" y1="0" x2="4104" y2="4608"/>
	<line id="XMLID_73_" class="st1" x1="4032" y1="0" x2="4032" y2="4608"/>
	<line id="XMLID_74_" class="st1" x1="3960" y1="0" x2="3960" y2="4608"/>
	<line id="XMLID_75_" class="st1" x1="3888" y1="0" x2="3888" y2="4608"/>
	<line id="XMLID_76_" class="st1" x1="3816" y1="0" x2="3816" y2="4608"/>
	<line id="XMLID_77_" class="st1" x1="3744" y1="0" x2="3744" y2="4608"/>
	<line id="XMLID_78_" class="st1" x1="3672" y1="0" x2="3672" y2="4608"/>
	<line id="XMLID_79_" class="st1" x1="3600" y1="0" x2="3600" y2="4608"/>
	<line id="XMLID_80_" class="st1" x1="3528" y1="0" x2="3528" y2="4608"/>
	<line id="XMLID_81_" class="st1" x1="3456" y1="0" x2="3456" y2="4608"/>
	<line id="XMLID_82_" class="st1" x1="3384" y1="0" x2="3384" y2="4608"/>
	<line id="XMLID_83_" class="st1" x1="3312" y1="0" x2="3312" y2="4608"/>
	<line id="XMLID_84_" class="st1" x1="3240" y1="0" x2="3240" y2="4608"/>
	<line id="XMLID_85_" class="st1" x1="3168" y1="0" x2="3168" y2="4608"/>
	<line id="XMLID_86_" class="st1" x1="3096" y1="0" x2="3096" y2="4608"/>
	<line id="XMLID_87_" class="st1" x1="3024" y1="0" x2="3024" y2="4608"/>
	<line id="XMLID_88_" class="st1" x1="2952" y1="0" x2="2952" y2="4608"/>
	<line id="XMLID_89_" class="st1" x1="2880" y1="0" x2="2880" y2="4608"/>
	<line id="XMLID_90_" class="st1" x1="2808" y1="0" x2="2808" y2="4608"/>
	<line id="XMLID_91_" class="st1" x1="2736" y1="0" x2="2736" y2="4608"/>
	<line id="XMLID_92_" class="st1" x1="2664" y1="0" x2="2664" y2="4608"/>
	<line id="XMLID_93_" class="st1" x1="2592" y1="0" x2="2592" y2="4608"/>
	<line id="XMLID_94_" class="st1" x1="2520" y1="0" x2="2520" y2="4608"/>
	<line id="XMLID_95_" class="st1" x1="2448" y1="0" x2="2448" y2="4608"/>
	<line id="XMLID_96_" class="st1" x1="2376" y1="0" x2="2376" y2="4608"/>
	<line id="XMLID_97_" class="st1" x1="2304" y1="0" x2="2304" y2="4608"/>
	<line id="XMLID_98_" class="st1" x1="2232" y1="0" x2="2232" y2="4608"/>
	<line id="XMLID_99_" class="st1" x1="2160" y1="0" x2="2160" y2="4608"/>
	<line id="XMLID_100_" class="st1" x1="2088" y1="0" x2="2088" y2="4608"/>
	<line id="XMLID_101_" class="st1" x1="2016" y1="0" x2="2016" y2="4608"/>
	<line id="XMLID_102_" class="st1" x1="1944" y1="0" x2="1944" y2="4608"/>
	<line id="XMLID_103_" class="st1" x1="1872" y1="0" x2="1872" y2="4608"/>
	<line id="XMLID_104_" class="st1" x1="1800" y1="0" x2="1800" y2="4608"/>
	<line id="XMLID_105_" class="st1" x1="1728" y1="0" x2="1728" y2="4608"/>
	<line id="XMLID_106_" class="st1" x1="1656" y1="0" x2="1656" y2="4608"/>
	<line id="XMLID_107_" class="st1" x1="1584" y1="0" x2="1584" y2="4608"/>
	<line id="XMLID_108_" class="st1" x1="1512" y1="0" x2="1512" y2="4608"/>
	<line id="XMLID_109_" class="st1" x1="1440" y1="0" x2="1440" y2="4608"/>
	<line id="XMLID_110_" class="st1" x1="1368" y1="0" x2="1368" y2="4608"/>
	<line id="XMLID_111_" class="st1" x1="1296" y1="0" x2="1296" y2="4608"/>
	<line id="XMLID_112_" class="st1" x1="1224" y1="0" x2="1224" y2="4608"/>
	<line id="XMLID_113_" class="st1" x1="1152" y1="0" x2="1152" y2="4608"/>
	<line id="XMLID_114_" class="st1" x1="1080" y1="0" x2="1080" y2="4608"/>
	<line id="XMLID_115_" class="st1" x1="1008" y1="0" x2="1008" y2="4608"/>
	<line id="XMLID_116_" class="st1" x1="936" y1="0" x2="936" y2="4608"/>
	<line id="XMLID_117_" class="st1" x1="864" y1="0" x2="864" y2="4608"/>
	<line id="XMLID_118_" class="st1" x1="792" y1="0" x2="792" y2="4608"/>
	<line id="XMLID_119_" class="st1" x1="720" y1="0" x2="720" y2="4608"/>
	<line id="XMLID_120_" class="st1" x1="648" y1="0" x2="648" y2="4608"/>
	<line id="XMLID_121_" class="st1" x1="576" y1="0" x2="576" y2="4608"/>
	<line id="XMLID_122_" class="st1" x1="504" y1="0" x2="504" y2="4608"/>
	<line id="XMLID_123_" class="st1" x1="432" y1="0" x2="432" y2="4608"/>
	<line id="XMLID_124_" class="st1" x1="360" y1="0" x2="360" y2="4608"/>
	<line id="XMLID_125_" class="st1" x1="288" y1="0" x2="288" y2="4608"/>
	<line id="XMLID_126_" class="st1" x1="216" y1="0" x2="216" y2="4608"/>
	<line id="XMLID_127_" class="st1" x1="144" y1="0" x2="144" y2="4608"/>
	<line id="XMLID_128_" class="st1" x1="72" y1="0" x2="72" y2="4608"/>
</g>
<g id="XMLID_305_">
	<g id="XMLID_324_">
		<path id="XMLID_1540_" class="st2" d="M3977.2,1625.8h-141V911.2c0-65.8-47-112.8-112.8-112.8h-2200v-141h2209.4
			c141,0,253.8,112.8,253.8,253.8v714.5H3977.2z"/>
	</g>
	<g id="XMLID_323_">
		<rect id="XMLID_1539_" x="1072.1" y="648" class="st2" width="272.6" height="141"/>
	</g>
	<g id="XMLID_320_" class="st3">
		<rect id="XMLID_466_" x="1551.5" y="3355.7" class="st2" width="1090.6" height="488.9"/>
	</g>
	<g id="XMLID_318_">
		<path id="XMLID_1535_" class="st2" d="M2717.3,3919.8H1485.7v-705.1h1231.6V3919.8z M1626.8,3778.8h949.6v-507.7h-949.6V3778.8z"
			/>
	</g>
	<g id="XMLID_129_">
		<path id="XMLID_131_" class="st2" d="M291.7,2791.6h75.2V901.8c0-65.8,47-112.8,112.8-112.8h460.7V648H470.3
			c-141,0-253.8,112.8-253.8,253.8V2942h75.2C291.7,2942,291.7,2791.6,291.7,2791.6z"/>
		<rect id="XMLID_130_" x="3911.4" y="2801" class="st4" width="0" height="141"/>
	</g>
	<g id="XMLID_316_">
		<path id="XMLID_1534_" class="st2" d="M2933.6,3355.7H479.7c-141,0-263.2-112.8-263.2-263.2v-376.1h2717.1v141H357.5v235
			c0,65.8,56.4,112.8,112.8,112.8h2463.2V3355.7z"/>
	</g>
	<g id="XMLID_315_">
		<rect id="XMLID_1533_" x="1344.7" y="3788.2" class="st2" width="1532.5" height="141"/>
	</g>
	<g id="XMLID_306_">
		<g id="XMLID_310_" class="st3">
			<rect id="XMLID_184_" x="3206.2" y="2095.9" class="st2" width="1006" height="1372.6"/>
		</g>
		<g id="XMLID_309_">
			<path id="XMLID_1530_" class="st2" d="M4193.4,3929.2H3225c-112.8,0-197.4-94-197.4-197.4V1879.6c0-112.8,94-197.4,197.4-197.4
				h968.4c112.8,0,197.4,94,197.4,197.4v1852.1C4400.3,3835.2,4306.2,3929.2,4193.4,3929.2z M3225,1823.2
				c-37.6,0-56.4,28.2-56.4,56.4v1852.1c0,37.6,28.2,56.4,56.4,56.4h968.4c37.6,0,56.4-28.2,56.4-56.4V1879.6
				c0-37.6-28.2-56.4-56.4-56.4H3225z"/>
		</g>
		<g id="XMLID_308_">
			<rect id="XMLID_1526_" x="3478.9" y="1879.6" class="st2" width="479.5" height="141"/>
		</g>
		<g id="XMLID_307_">
			<path id="XMLID_295_" class="st2" d="M3713.9,3750.6c-65.8,0-122.2-56.4-122.2-122.2c0-65.8,56.4-122.2,122.2-122.2
				c65.8,0,122.2,56.4,122.2,122.2C3836.2,3694.1,3779.7,3750.6,3713.9,3750.6z M3713.9,3609.5c-9.4,0-18.8,9.4-18.8,18.8
				c0,18.8,37.6,18.8,37.6,0S3723.3,3609.5,3713.9,3609.5z"/>
		</g>
	</g>
</g>
</svg>
