<?xml version="1.0" encoding="utf-8"?>
<!-- Generator: Adobe Illustrator 19.0.0, SVG Export Plug-In . SVG Version: 6.00 Build 0)  -->
<svg version="1.1" id="Layer_1" xmlns="http://www.w3.org/2000/svg" xmlns:xlink="http://www.w3.org/1999/xlink" x="0px" y="0px"
	 viewBox="0 0 4608 4608" style="enable-background:new 0 0 4608 4608;" xml:space="preserve">
<style type="text/css">
	.st0{display:none;}
	.st1{display:inline;fill:none;stroke:#000000;stroke-miterlimit:10;}
	.st2{display:inline;}
	.st3{fill:#0FA8E1;}
	.st4{display:inline;opacity:0.2;}
	.st5{fill:#2B84C6;}
	.st6{opacity:0.2;}
	.st7{opacity:0.4;}
	.st8{display:inline;fill:#0FA8E1;}
	.st9{fill:#9DA5B0;}
	.st10{opacity:0.2;fill:#9DA5B0;}
</style>
<g id="XMLID_1_" class="st0">
	<rect id="XMLID_2_" class="st1" width="4608" height="4608"/>
	<line id="XMLID_3_" class="st1" x1="0" y1="4536" x2="4608" y2="4536"/>
	<line id="XMLID_4_" class="st1" x1="0" y1="4464" x2="4608" y2="4464"/>
	<line id="XMLID_5_" class="st1" x1="0" y1="4392" x2="4608" y2="4392"/>
	<line id="XMLID_6_" class="st1" x1="0" y1="4320" x2="4608" y2="4320"/>
	<line id="XMLID_7_" class="st1" x1="0" y1="4248" x2="4608" y2="4248"/>
	<line id="XMLID_8_" class="st1" x1="0" y1="4176" x2="4608" y2="4176"/>
	<line id="XMLID_9_" class="st1" x1="0" y1="4104" x2="4608" y2="4104"/>
	<line id="XMLID_10_" class="st1" x1="0" y1="4032" x2="4608" y2="4032"/>
	<line id="XMLID_11_" class="st1" x1="0" y1="3960" x2="4608" y2="3960"/>
	<line id="XMLID_12_" class="st1" x1="0" y1="3888" x2="4608" y2="3888"/>
	<line id="XMLID_13_" class="st1" x1="0" y1="3816" x2="4608" y2="3816"/>
	<line id="XMLID_14_" class="st1" x1="0" y1="3744" x2="4608" y2="3744"/>
	<line id="XMLID_15_" class="st1" x1="0" y1="3672" x2="4608" y2="3672"/>
	<line id="XMLID_16_" class="st1" x1="0" y1="3600" x2="4608" y2="3600"/>
	<line id="XMLID_17_" class="st1" x1="0" y1="3528" x2="4608" y2="3528"/>
	<line id="XMLID_18_" class="st1" x1="0" y1="3456" x2="4608" y2="3456"/>
	<line id="XMLID_19_" class="st1" x1="0" y1="3384" x2="4608" y2="3384"/>
	<line id="XMLID_20_" class="st1" x1="0" y1="3312" x2="4608" y2="3312"/>
	<line id="XMLID_21_" class="st1" x1="0" y1="3240" x2="4608" y2="3240"/>
	<line id="XMLID_22_" class="st1" x1="0" y1="3168" x2="4608" y2="3168"/>
	<line id="XMLID_23_" class="st1" x1="0" y1="3096" x2="4608" y2="3096"/>
	<line id="XMLID_24_" class="st1" x1="0" y1="3024" x2="4608" y2="3024"/>
	<line id="XMLID_25_" class="st1" x1="0" y1="2952" x2="4608" y2="2952"/>
	<line id="XMLID_26_" class="st1" x1="0" y1="2880" x2="4608" y2="2880"/>
	<line id="XMLID_27_" class="st1" x1="0" y1="2808" x2="4608" y2="2808"/>
	<line id="XMLID_28_" class="st1" x1="0" y1="2736" x2="4608" y2="2736"/>
	<line id="XMLID_29_" class="st1" x1="0" y1="2664" x2="4608" y2="2664"/>
	<line id="XMLID_30_" class="st1" x1="0" y1="2592" x2="4608" y2="2592"/>
	<line id="XMLID_31_" class="st1" x1="0" y1="2520" x2="4608" y2="2520"/>
	<line id="XMLID_32_" class="st1" x1="0" y1="2448" x2="4608" y2="2448"/>
	<line id="XMLID_33_" class="st1" x1="0" y1="2376" x2="4608" y2="2376"/>
	<line id="XMLID_34_" class="st1" x1="0" y1="2304" x2="4608" y2="2304"/>
	<line id="XMLID_35_" class="st1" x1="0" y1="2232" x2="4608" y2="2232"/>
	<line id="XMLID_36_" class="st1" x1="0" y1="2160" x2="4608" y2="2160"/>
	<line id="XMLID_37_" class="st1" x1="0" y1="2088" x2="4608" y2="2088"/>
	<line id="XMLID_38_" class="st1" x1="0" y1="2016" x2="4608" y2="2016"/>
	<line id="XMLID_39_" class="st1" x1="0" y1="1944" x2="4608" y2="1944"/>
	<line id="XMLID_40_" class="st1" x1="0" y1="1872" x2="4608" y2="1872"/>
	<line id="XMLID_41_" class="st1" x1="0" y1="1800" x2="4608" y2="1800"/>
	<line id="XMLID_42_" class="st1" x1="0" y1="1728" x2="4608" y2="1728"/>
	<line id="XMLID_43_" class="st1" x1="0" y1="1656" x2="4608" y2="1656"/>
	<line id="XMLID_44_" class="st1" x1="0" y1="1584" x2="4608" y2="1584"/>
	<line id="XMLID_45_" class="st1" x1="0" y1="1512" x2="4608" y2="1512"/>
	<line id="XMLID_46_" class="st1" x1="0" y1="1440" x2="4608" y2="1440"/>
	<line id="XMLID_47_" class="st1" x1="0" y1="1368" x2="4608" y2="1368"/>
	<line id="XMLID_48_" class="st1" x1="0" y1="1296" x2="4608" y2="1296"/>
	<line id="XMLID_49_" class="st1" x1="0" y1="1224" x2="4608" y2="1224"/>
	<line id="XMLID_50_" class="st1" x1="0" y1="1152" x2="4608" y2="1152"/>
	<line id="XMLID_51_" class="st1" x1="0" y1="1080" x2="4608" y2="1080"/>
	<line id="XMLID_52_" class="st1" x1="0" y1="1008" x2="4608" y2="1008"/>
	<line id="XMLID_53_" class="st1" x1="0" y1="936" x2="4608" y2="936"/>
	<line id="XMLID_54_" class="st1" x1="0" y1="864" x2="4608" y2="864"/>
	<line id="XMLID_55_" class="st1" x1="0" y1="792" x2="4608" y2="792"/>
	<line id="XMLID_56_" class="st1" x1="0" y1="720" x2="4608" y2="720"/>
	<line id="XMLID_57_" class="st1" x1="0" y1="648" x2="4608" y2="648"/>
	<line id="XMLID_58_" class="st1" x1="0" y1="576" x2="4608" y2="576"/>
	<line id="XMLID_59_" class="st1" x1="0" y1="504" x2="4608" y2="504"/>
	<line id="XMLID_60_" class="st1" x1="0" y1="432" x2="4608" y2="432"/>
	<line id="XMLID_61_" class="st1" x1="0" y1="360" x2="4608" y2="360"/>
	<line id="XMLID_62_" class="st1" x1="0" y1="288" x2="4608" y2="288"/>
	<line id="XMLID_63_" class="st1" x1="0" y1="216" x2="4608" y2="216"/>
	<line id="XMLID_64_" class="st1" x1="0" y1="144" x2="4608" y2="144"/>
	<line id="XMLID_65_" class="st1" x1="0" y1="72" x2="4608" y2="72"/>
	<line id="XMLID_66_" class="st1" x1="4536" y1="0" x2="4536" y2="4608"/>
	<line id="XMLID_67_" class="st1" x1="4464" y1="0" x2="4464" y2="4608"/>
	<line id="XMLID_68_" class="st1" x1="4392" y1="0" x2="4392" y2="4608"/>
	<line id="XMLID_69_" class="st1" x1="4320" y1="0" x2="4320" y2="4608"/>
	<line id="XMLID_70_" class="st1" x1="4248" y1="0" x2="4248" y2="4608"/>
	<line id="XMLID_71_" class="st1" x1="4176" y1="0" x2="4176" y2="4608"/>
	<line id="XMLID_72_" class="st1" x1="4104" y1="0" x2="4104" y2="4608"/>
	<line id="XMLID_73_" class="st1" x1="4032" y1="0" x2="4032" y2="4608"/>
	<line id="XMLID_74_" class="st1" x1="3960" y1="0" x2="3960" y2="4608"/>
	<line id="XMLID_75_" class="st1" x1="3888" y1="0" x2="3888" y2="4608"/>
	<line id="XMLID_76_" class="st1" x1="3816" y1="0" x2="3816" y2="4608"/>
	<line id="XMLID_77_" class="st1" x1="3744" y1="0" x2="3744" y2="4608"/>
	<line id="XMLID_78_" class="st1" x1="3672" y1="0" x2="3672" y2="4608"/>
	<line id="XMLID_79_" class="st1" x1="3600" y1="0" x2="3600" y2="4608"/>
	<line id="XMLID_80_" class="st1" x1="3528" y1="0" x2="3528" y2="4608"/>
	<line id="XMLID_81_" class="st1" x1="3456" y1="0" x2="3456" y2="4608"/>
	<line id="XMLID_82_" class="st1" x1="3384" y1="0" x2="3384" y2="4608"/>
	<line id="XMLID_83_" class="st1" x1="3312" y1="0" x2="3312" y2="4608"/>
	<line id="XMLID_84_" class="st1" x1="3240" y1="0" x2="3240" y2="4608"/>
	<line id="XMLID_85_" class="st1" x1="3168" y1="0" x2="3168" y2="4608"/>
	<line id="XMLID_86_" class="st1" x1="3096" y1="0" x2="3096" y2="4608"/>
	<line id="XMLID_87_" class="st1" x1="3024" y1="0" x2="3024" y2="4608"/>
	<line id="XMLID_88_" class="st1" x1="2952" y1="0" x2="2952" y2="4608"/>
	<line id="XMLID_89_" class="st1" x1="2880" y1="0" x2="2880" y2="4608"/>
	<line id="XMLID_90_" class="st1" x1="2808" y1="0" x2="2808" y2="4608"/>
	<line id="XMLID_91_" class="st1" x1="2736" y1="0" x2="2736" y2="4608"/>
	<line id="XMLID_92_" class="st1" x1="2664" y1="0" x2="2664" y2="4608"/>
	<line id="XMLID_93_" class="st1" x1="2592" y1="0" x2="2592" y2="4608"/>
	<line id="XMLID_94_" class="st1" x1="2520" y1="0" x2="2520" y2="4608"/>
	<line id="XMLID_95_" class="st1" x1="2448" y1="0" x2="2448" y2="4608"/>
	<line id="XMLID_96_" class="st1" x1="2376" y1="0" x2="2376" y2="4608"/>
	<line id="XMLID_97_" class="st1" x1="2304" y1="0" x2="2304" y2="4608"/>
	<line id="XMLID_98_" class="st1" x1="2232" y1="0" x2="2232" y2="4608"/>
	<line id="XMLID_99_" class="st1" x1="2160" y1="0" x2="2160" y2="4608"/>
	<line id="XMLID_100_" class="st1" x1="2088" y1="0" x2="2088" y2="4608"/>
	<line id="XMLID_101_" class="st1" x1="2016" y1="0" x2="2016" y2="4608"/>
	<line id="XMLID_102_" class="st1" x1="1944" y1="0" x2="1944" y2="4608"/>
	<line id="XMLID_103_" class="st1" x1="1872" y1="0" x2="1872" y2="4608"/>
	<line id="XMLID_104_" class="st1" x1="1800" y1="0" x2="1800" y2="4608"/>
	<line id="XMLID_105_" class="st1" x1="1728" y1="0" x2="1728" y2="4608"/>
	<line id="XMLID_106_" class="st1" x1="1656" y1="0" x2="1656" y2="4608"/>
	<line id="XMLID_107_" class="st1" x1="1584" y1="0" x2="1584" y2="4608"/>
	<line id="XMLID_108_" class="st1" x1="1512" y1="0" x2="1512" y2="4608"/>
	<line id="XMLID_109_" class="st1" x1="1440" y1="0" x2="1440" y2="4608"/>
	<line id="XMLID_110_" class="st1" x1="1368" y1="0" x2="1368" y2="4608"/>
	<line id="XMLID_111_" class="st1" x1="1296" y1="0" x2="1296" y2="4608"/>
	<line id="XMLID_112_" class="st1" x1="1224" y1="0" x2="1224" y2="4608"/>
	<line id="XMLID_113_" class="st1" x1="1152" y1="0" x2="1152" y2="4608"/>
	<line id="XMLID_114_" class="st1" x1="1080" y1="0" x2="1080" y2="4608"/>
	<line id="XMLID_115_" class="st1" x1="1008" y1="0" x2="1008" y2="4608"/>
	<line id="XMLID_116_" class="st1" x1="936" y1="0" x2="936" y2="4608"/>
	<line id="XMLID_117_" class="st1" x1="864" y1="0" x2="864" y2="4608"/>
	<line id="XMLID_118_" class="st1" x1="792" y1="0" x2="792" y2="4608"/>
	<line id="XMLID_119_" class="st1" x1="720" y1="0" x2="720" y2="4608"/>
	<line id="XMLID_120_" class="st1" x1="648" y1="0" x2="648" y2="4608"/>
	<line id="XMLID_121_" class="st1" x1="576" y1="0" x2="576" y2="4608"/>
	<line id="XMLID_122_" class="st1" x1="504" y1="0" x2="504" y2="4608"/>
	<line id="XMLID_123_" class="st1" x1="432" y1="0" x2="432" y2="4608"/>
	<line id="XMLID_124_" class="st1" x1="360" y1="0" x2="360" y2="4608"/>
	<line id="XMLID_125_" class="st1" x1="288" y1="0" x2="288" y2="4608"/>
	<line id="XMLID_126_" class="st1" x1="216" y1="0" x2="216" y2="4608"/>
	<line id="XMLID_127_" class="st1" x1="144" y1="0" x2="144" y2="4608"/>
	<line id="XMLID_128_" class="st1" x1="72" y1="0" x2="72" y2="4608"/>
</g>
<g id="XMLID_305_" class="st0">
	<g id="XMLID_324_" class="st2">
		<path id="XMLID_1540_" class="st3" d="M3977.2,1625.8h-141V911.2c0-65.8-47-112.8-112.8-112.8h-2200v-141h2209.4
			c141,0,253.8,112.8,253.8,253.8v714.5h-9.4V1625.8z"/>
	</g>
	<g id="XMLID_323_" class="st2">
		<rect id="XMLID_1539_" x="1072.1" y="648" class="st3" width="272.6" height="141"/>
	</g>
	<g id="XMLID_320_" class="st4">
		<rect id="XMLID_466_" x="1551.5" y="3355.7" class="st3" width="1090.6" height="488.9"/>
	</g>
	<g id="XMLID_318_" class="st2">
		<path id="XMLID_1535_" class="st3" d="M2717.3,3919.8H1485.7v-705.1h1231.6L2717.3,3919.8L2717.3,3919.8z M1626.8,3778.8h949.6
			v-507.7h-949.6L1626.8,3778.8L1626.8,3778.8z"/>
	</g>
	<g id="XMLID_129_" class="st2">
		<path id="XMLID_131_" class="st3" d="M291.7,2791.6h75.2V901.8c0-65.8,47-112.8,112.8-112.8h460.7V648H470.3
			c-141,0-253.8,112.8-253.8,253.8V2942h75.2C291.7,2942,291.7,2791.6,291.7,2791.6z"/>
		<rect id="XMLID_130_" x="3911.4" y="2801" class="st5" width="0" height="141"/>
	</g>
	<g id="XMLID_316_" class="st2">
		<path id="XMLID_1534_" class="st3" d="M2933.6,3355.7H479.7c-141,0-263.2-112.8-263.2-263.2v-376.1h2717.1v141H357.5v235
			c0,65.8,56.4,112.8,112.8,112.8h2463.2v150.5H2933.6z"/>
	</g>
	<g id="XMLID_315_" class="st2">
		<rect id="XMLID_1533_" x="1344.7" y="3788.2" class="st3" width="1532.5" height="141"/>
	</g>
	<g id="XMLID_306_" class="st2">
		<g id="XMLID_310_" class="st6">
			<rect id="XMLID_184_" x="3206.2" y="2095.9" class="st3" width="1006" height="1372.6"/>
		</g>
		<g id="XMLID_309_">
			<path id="XMLID_1530_" class="st3" d="M4193.4,3929.2H3225c-112.8,0-197.4-94-197.4-197.4V1879.6c0-112.8,94-197.4,197.4-197.4
				h968.4c112.8,0,197.4,94,197.4,197.4v1852.1C4400.3,3835.2,4306.2,3929.2,4193.4,3929.2z M3225,1823.2
				c-37.6,0-56.4,28.2-56.4,56.4v1852.1c0,37.6,28.2,56.4,56.4,56.4h968.4c37.6,0,56.4-28.2,56.4-56.4V1879.6
				c0-37.6-28.2-56.4-56.4-56.4H3225z"/>
		</g>
		<g id="XMLID_308_">
			<rect id="XMLID_1526_" x="3478.9" y="1879.6" class="st3" width="479.5" height="141"/>
		</g>
		<g id="XMLID_307_">
			<path id="XMLID_295_" class="st3" d="M3713.9,3750.6c-65.8,0-122.2-56.4-122.2-122.2s56.4-122.2,122.2-122.2
				s122.2,56.4,122.2,122.2C3836.2,3694.1,3779.7,3750.6,3713.9,3750.6z M3713.9,3609.5c-9.4,0-18.8,9.4-18.8,18.8
				c0,18.8,37.6,18.8,37.6,0S3723.3,3609.5,3713.9,3609.5z"/>
		</g>
	</g>
</g>
<g id="XMLID_169_" class="st0">
	<g id="XMLID_157_" class="st2">
		<g id="XMLID_332_" class="st7">
			<path id="XMLID_142_" class="st3" d="M4122.7,3926H792.6c-79.5,0-149.1-59.6-159-139.2l-29.8-139.2h1540.8l59.6,89.5h427.4
				l59.6-89.5h1630.3l-19.9,129.2C4291.7,3856.4,4212.1,3926,4122.7,3926z"/>
		</g>
		<g id="XMLID_155_">
			<path id="XMLID_1856_" class="st3" d="M4122.7,4005.5H792.6c-119.3,0-218.7-79.5-238.6-198.8l-39.8-228.6h1670l59.6,89.5h347.9
				l59.6-89.5H4401l-39.8,208.8C4361.2,3906.1,4251.9,4005.5,4122.7,4005.5z M693.1,3717.2l9.9,59.6c9.9,39.8,39.8,69.6,89.5,69.6
				h3330.1c59.6,0,99.4-39.8,109.3-89.5l9.9-39.8H2731l-59.6,89.5h-507l-59.6-89.5C2104.7,3717.2,693.1,3717.2,693.1,3717.2z"/>
		</g>
		<g id="XMLID_1453_" class="st7">
			<path id="XMLID_2367_" class="st3" d="M295.5,1033.3V774.8c0-69.6,59.6-119.3,119.3-119.3h2196.9c69.6,0,119.3,59.6,119.3,119.3
				v258.5H295.5z"/>
		</g>
		<g id="XMLID_1452_">
			<path id="XMLID_1855_" class="st3" d="M2611.7,2494.5H414.8c-109.3,0-198.8-89.5-198.8-198.8V774.8
				C216,665.5,305.5,576,414.8,576h328v149.1h-328c-29.8,0-49.7,19.9-49.7,49.7v1520.9c0,29.8,19.9,49.7,49.7,49.7h2196.9
				c29.8,0,49.7-19.9,49.7-49.7V774.8c0-29.8-19.9-49.7-49.7-49.7H1170.3V576h1451.3c109.3,0,198.8,89.5,198.8,198.8v1520.9
				C2810.5,2405.1,2721,2494.5,2611.7,2494.5z"/>
		</g>
		<g id="XMLID_882_">
			<rect id="XMLID_1854_" x="832.3" y="576" class="st3" width="188.9" height="149.1"/>
		</g>
		<g id="XMLID_879_">
			<rect id="XMLID_1853_" x="295.5" y="963.7" class="st3" width="2435.5" height="149.1"/>
		</g>
		<g id="XMLID_876_">
			<rect id="XMLID_1852_" x="573.9" y="784.8" class="st3" width="99.4" height="149.1"/>
		</g>
		<g id="XMLID_873_">
			<rect id="XMLID_1851_" x="802.5" y="784.8" class="st3" width="99.4" height="149.1"/>
		</g>
		<g id="XMLID_872_">
			<rect id="XMLID_1850_" x="1031.1" y="784.8" class="st3" width="99.4" height="149.1"/>
		</g>
		<g id="XMLID_154_">
			<path id="XMLID_1844_" class="st3" d="M1051,1659.5v-69.6l258.5-119.3v79.5l-169,79.5l169,79.5v79.5L1051,1659.5z"/>
			<path id="XMLID_1846_" class="st3" d="M1587.8,1401.1h79.5l-228.6,497h-79.5L1587.8,1401.1z"/>
			<path id="XMLID_1848_" class="st3" d="M1985.4,1589.9v69.6L1727,1778.8v-79.5l169-79.5l-169-79.5v-79.5L1985.4,1589.9z"/>
		</g>
		<g id="XMLID_160_">
			<rect id="XMLID_1843_" x="2919.8" y="1758.9" class="st3" width="805.2" height="149.1"/>
		</g>
		<g id="XMLID_158_">
			<rect id="XMLID_1842_" x="3148.5" y="2116.8" class="st3" width="268.4" height="149.1"/>
		</g>
		<g id="XMLID_161_">
			<rect id="XMLID_1841_" x="2114.7" y="2544.2" class="st3" width="805.2" height="149.1"/>
		</g>
		<g id="XMLID_167_">
			<rect id="XMLID_1840_" x="3069" y="2544.2" class="st3" width="447.3" height="149.1"/>
		</g>
		<g id="XMLID_164_">
			<rect id="XMLID_1839_" x="1826.4" y="2544.2" class="st3" width="149.1" height="149.1"/>
		</g>
		<g id="XMLID_162_">
			<rect id="XMLID_1838_" x="1130.5" y="2812.6" class="st3" width="805.2" height="149.1"/>
		</g>
		<g id="XMLID_163_">
			<rect id="XMLID_1837_" x="1627.6" y="3160.6" class="st3" width="805.2" height="149.1"/>
		</g>
		<g id="XMLID_166_">
			<rect id="XMLID_1836_" x="2621.6" y="3160.6" class="st3" width="447.3" height="149.1"/>
		</g>
	</g>
</g>
<g id="XMLID_138_" class="st0">
	<polygon id="XMLID_141_" class="st8" points="2194.2,3924.2 2204.1,3934.2 2631.6,3934.2 2641.5,3924.2 	"/>
	<path id="XMLID_140_" class="st8" d="M4102.8,1627.9v2226.7h149.1V1627.9c0-89.5-69.6-159-159-159h-1173V1618h1173
		C4102.8,1618,4102.8,1618,4102.8,1627.9z"/>
	<rect id="XMLID_139_" x="693.1" y="2830.7" class="st8" width="149.1" height="1023.9"/>
</g>
<g id="XMLID_249_">
	<g id="XMLID_248_">
		<g id="XMLID_234_">
			<path id="XMLID_1835_" class="st9" d="M1843.4,4075.9H595.3c-130.3,0-236.3-106-236.3-236.3V985.9c0-130.3,106-236.3,236.3-236.3
				h1248.2V895H595.3c-50.1,0-90.9,40.7-90.9,90.9v2853.8c0,50.1,40.7,90.9,90.9,90.9h1248.2V4075.9z"/>
		</g>
		<rect id="XMLID_137_" x="1843.4" y="2483.9" class="st10" width="178.7" height="570.6"/>
		<g id="XMLID_246_">
			<rect id="XMLID_1833_" x="679.3" y="999.9" class="st9" width="142.7" height="145.4"/>
		</g>
		<g id="XMLID_245_">
			<rect id="XMLID_1832_" x="1009.5" y="999.9" class="st9" width="142.7" height="145.4"/>
		</g>
		<g id="XMLID_244_">
			<rect id="XMLID_1831_" x="1339.8" y="999.9" class="st9" width="142.6" height="145.4"/>
		</g>
		<g id="XMLID_241_" class="st6">
			<rect id="XMLID_2258_" x="784.1" y="2483.9" class="st9" width="732.1" height="570.6"/>
		</g>
		<g id="XMLID_240_">
			<path id="XMLID_1825_" class="st9" d="M1589,3127.2H711.4v-716H1589V3127.2z M856.8,2981.8h586.8v-425.2H856.8V2981.8z"/>
		</g>
	</g>
	<g id="XMLID_247_">
		<rect id="XMLID_136_" x="784.1" y="1689.4" class="st10" width="1237.9" height="570.6"/>
		<g id="XMLID_226_">
			<path id="XMLID_1821_" class="st9" d="M3982.7,4075.9h-1768c-146.3,0-265.3-119-265.3-265.3V769.1c0-146.3,119-265.3,265.3-265.3
				h183.5v145.4h-183.5c-66.1,0-119.9,53.8-119.9,119.9v3041.5c0,66.1,53.8,119.9,119.9,119.9h1768c66.1,0,119.9-53.8,119.9-119.9
				V769.1c0-66.1-53.8-119.9-119.9-119.9h-890.4V503.7h890.4c146.3,0,265.3,119,265.3,265.3v3041.5
				C4248,3956.9,4129,4075.9,3982.7,4075.9z"/>
		</g>
		<g id="XMLID_225_">
			<rect id="XMLID_1820_" x="2575.8" y="503.7" class="st9" width="304.5" height="145.4"/>
		</g>
		<g id="XMLID_224_">
			<rect id="XMLID_1819_" x="2780" y="761.9" class="st9" width="637.4" height="145.4"/>
		</g>
		<g id="XMLID_223_">
			<path id="XMLID_1816_" class="st9" d="M3098.7,3899c-97.1,0-176-79-176-176.1c0-97.1,78.9-176.1,176-176.1
				c97.1,0,176.1,79,176.1,176.1C3274.7,3820.1,3195.7,3899,3098.7,3899z M3098.7,3692.3c-16.9,0-30.6,13.8-30.6,30.7
				c0,16.9,13.7,30.7,30.6,30.7c16.9,0,30.7-13.8,30.7-30.7C3129.3,3706.1,3115.6,3692.3,3098.7,3692.3z"/>
		</g>
		<g id="XMLID_222_" class="st6">
			<rect id="XMLID_2364_" x="2237.4" y="1071" class="st9" width="1722.6" height="2427.4"/>
		</g>
		<g id="XMLID_217_">
			<path id="XMLID_1813_" class="st9" d="M3851.9,2107.8H2405.4v-716h1446.5V2107.8z M2550.8,1962.4h1155.7v-425.2H2550.8V1962.4z"
				/>
		</g>
		<g id="XMLID_230_">
			<rect id="XMLID_1812_" x="2642.8" y="2217.1" class="st9" width="934.1" height="145.4"/>
		</g>
		<g id="XMLID_229_">
			<rect id="XMLID_1811_" x="2642.8" y="2513.3" class="st9" width="934.1" height="145.4"/>
		</g>
		<g id="XMLID_232_">
			<rect id="XMLID_1810_" x="2642.8" y="2809.5" class="st9" width="934.1" height="145.4"/>
		</g>
		<g id="XMLID_233_">
			<rect id="XMLID_1809_" x="2642.8" y="3105.7" class="st9" width="934.1" height="145.4"/>
		</g>
	</g>
</g>
<polygon id="XMLID_135_" class="st9" points="2033.2,2260 856.8,2260 856.8,1834.8 2033.2,1834.8 2033.2,1689.4 711.4,1689.4 
	711.4,2405.4 2033.2,2405.4 "/>
<g id="XMLID_133_">
	<rect id="XMLID_134_" x="431.7" y="1322.9" class="st9" width="1601.5" height="145.4"/>
</g>
<polygon id="XMLID_132_" class="st9" points="2022.1,3054.5 1916.1,3054.5 1916.1,2629.3 2022.1,2629.3 2022.1,2483.9 
	1770.7,2483.9 1770.7,3199.9 2022.1,3199.9 "/>
</svg>
